<?xml version="1.0" encoding="utf-8"?>
<!-- Generator: Adobe Illustrator 16.1.0, SVG Export Plug-In . SVG Version: 6.00 Build 0)  -->
<!DOCTYPE svg PUBLIC "-//W3C//DTD SVG 1.1//EN" "http://www.w3.org/Graphics/SVG/1.1/DTD/svg11.dtd">
<svg version="1.1" id="Layer_1" xmlns="http://www.w3.org/2000/svg" xmlns:xlink="http://www.w3.org/1999/xlink" x="0px" y="0px"
	 width="97px" height="25px" viewBox="0 0 97 25" enable-background="new 0 0 97 25" xml:space="preserve">
<filter  filterUnits="objectBoundingBox" id="AI_Shadow_1">
	<feGaussianBlur  in="SourceAlpha" stdDeviation="1" result="blur"></feGaussianBlur>
	<feOffset  dy="-2" dx="0" in="blur" result="offsetBlurredAlpha"></feOffset>
	<feMerge>
		<feMergeNode  in="offsetBlurredAlpha"></feMergeNode>
		<feMergeNode  in="SourceGraphic"></feMergeNode>
	</feMerge>
</filter>
<g filter="url(#AI_Shadow_1)">
	<g id="logo_2_">
		<path fill="#FFFFFF" d="M1,8.895h2.15l5.27,11.543l5.206-11.543h2.164L8.604,24.721H8.229L1,8.895z"/>
		<path fill="#FFFFFF" d="M19.564,2.719c0.459,0,0.852,0.165,1.178,0.499c0.324,0.332,0.488,0.732,0.488,1.202
			c0,0.459-0.164,0.853-0.488,1.186c-0.326,0.332-0.719,0.499-1.178,0.499c-0.451,0-0.839-0.167-1.164-0.499
			c-0.326-0.333-0.489-0.727-0.489-1.186c0-0.47,0.163-0.871,0.489-1.202C18.726,2.884,19.113,2.719,19.564,2.719z M18.561,8.895
			h2.021v15.826h-2.021V8.895z"/>
		<g>
			<path fill="#FFFFFF" d="M72.485,19.343l1.606,0.857c-0.526,1.05-1.136,1.898-1.826,2.543c-0.69,0.646-1.468,1.138-2.331,1.473
				c-0.863,0.338-1.841,0.505-2.931,0.505c-2.417,0-4.307-0.804-5.67-2.412c-1.363-1.609-2.044-3.427-2.044-5.454
				c0-1.91,0.577-3.609,1.73-5.103c1.463-1.9,3.421-2.85,5.875-2.85c2.525,0,4.543,0.974,6.051,2.918
				c1.072,1.373,1.617,3.089,1.636,5.143H61.25c0.036,1.75,0.587,3.181,1.65,4.298c1.062,1.118,2.376,1.677,3.939,1.677
				c0.755,0,1.488-0.133,2.203-0.4c0.713-0.267,1.319-0.619,1.819-1.06S71.903,20.324,72.485,19.343z M72.485,15.291
				c-0.255-1.031-0.625-1.857-1.111-2.477c-0.487-0.615-1.13-1.115-1.93-1.493c-0.8-0.378-1.641-0.567-2.522-0.567
				c-1.455,0-2.704,0.476-3.749,1.425c-0.765,0.692-1.341,1.728-1.731,3.111H72.485z"/>
		</g>
		<g>
			<path fill="#FFFFFF" d="M56.693,2.72v22.001h-1.879v-2.972c-0.798,0.984-1.694,1.726-2.687,2.225
				c-0.993,0.497-2.08,0.746-3.259,0.746c-2.096,0-3.884-0.772-5.367-2.314c-1.482-1.544-2.225-3.419-2.225-5.629
				c0-2.165,0.748-4.016,2.245-5.555c1.497-1.538,3.297-2.307,5.4-2.307c1.216,0,2.316,0.262,3.3,0.789
				c0.984,0.523,1.849,1.312,2.592,2.361V2.72H56.693z M49.081,10.779c-1.062,0-2.039,0.265-2.937,0.794
				c-0.896,0.529-1.61,1.272-2.141,2.229c-0.529,0.955-0.795,1.967-0.795,3.036c0,1.056,0.268,2.069,0.802,3.034
				c0.534,0.967,1.253,1.72,2.154,2.257c0.901,0.538,1.868,0.807,2.901,0.807c1.043,0,2.028-0.267,2.962-0.799
				c0.934-0.535,1.651-1.258,2.155-2.168c0.502-0.91,0.753-1.936,0.753-3.077c0-1.738-0.562-3.19-1.691-4.361
				C52.117,11.365,50.729,10.779,49.081,10.779z"/>
		</g>
		<g id="feuille_2_">
			<path fill="#E37E25" d="M85.74,2.799c0,0,2.598,1.723,3.045,6.456c0,0,0.876,11.369-5.006,13.599c0,0,0.526,0.098,1.12,0.069
				c0,0,7.274-4.586,3.938-13.495C88.837,9.428,87.839,6.319,85.74,2.799z"/>
			<path fill="#E37E25" d="M89.537,10.564c0,0-1.354-2.096,0.365-3.824c0,0,0.603-0.665,2.322-1.101c0,0,1.72-0.368,2.649-2.34
				c0,0,1.926,2.689,0.741,6.23c0,0-0.586,1.593-1.811,2.322c-0.922,0.549-2.319,0.721-3.781-0.711c0,0,4.42-2.423,4.585-4.473
				C94.608,6.667,93.251,9.72,89.537,10.564z"/>
		</g>
		<g>
			<path fill="#FFFFFF" d="M38.666,16.853c0-2.091-0.682-3.899-2.047-5.428c-1.5-1.675-3.392-2.511-5.676-2.511
				c-2.291,0-4.188,0.841-5.688,2.526c-1.364,1.529-2.046,3.332-2.046,5.413c0,2.098,0.721,3.931,2.162,5.499
				c1.441,1.57,3.299,2.355,5.572,2.355c2.266,0,4.118-0.785,5.561-2.355c0.082-0.09,0.162-0.182,0.24-0.273l0.002,2.643h1.889
				v-7.149C38.655,17.335,38.666,17.095,38.666,16.853z M35.953,19.931c-0.52,0.938-1.221,1.663-2.104,2.174
				s-1.854,0.767-2.911,0.767s-2.027-0.256-2.911-0.767s-1.585-1.236-2.104-2.174c-0.52-0.938-0.779-1.951-0.779-3.038
				c0-1.686,0.569-3.119,1.709-4.306c1.138-1.189,2.5-1.782,4.086-1.782c1.576,0,2.936,0.592,4.08,1.782
				c1.143,1.187,1.715,2.621,1.715,4.306C36.732,17.979,36.473,18.992,35.953,19.931z"/>
		</g>
		<path fill="#FFFFFF" d="M90.664,16.927c0,1.09-0.26,2.105-0.78,3.048s-1.223,1.67-2.108,2.183s-1.857,0.769-2.916,0.769
			c-1.06,0-2.032-0.256-2.917-0.769c-0.887-0.513-1.589-1.24-2.108-2.183c-0.521-0.942-0.781-1.958-0.781-3.048
			c0-1.69,0.571-3.131,1.712-4.324c1.142-1.191,2.506-1.786,4.095-1.786c0.755,0,1.46,0.137,2.116,0.409
			c0.065-0.689,0.309-1.331,0.576-1.856c-0.825-0.299-1.72-0.452-2.687-0.452c-2.296,0-4.196,0.846-5.698,2.536
			c-1.368,1.533-2.052,3.344-2.052,5.431c0,2.107,0.723,3.947,2.167,5.522c1.443,1.574,3.305,2.36,5.583,2.36
			c2.27,0,4.126-0.786,5.57-2.36c1.444-1.575,2.166-3.415,2.166-5.522c0-1.127-0.199-2.171-0.594-3.136
			c-0.662,0.408-1.293,0.62-1.815,0.729C90.507,15.227,90.664,16.041,90.664,16.927z"/>
	</g>
</g>
</svg>
