<svg xmlns="http://www.w3.org/2000/svg" width="134" height="29"><linearGradient id="a" gradientUnits="userSpaceOnUse" x1="95.304" y1="14.348" x2="112.166" y2="14.348"><stop offset=".519" stop-color="#F48020"/><stop offset="1" stop-color="#D76927"/></linearGradient><polygon fill="url(#a)" points="95.304,29 102.272,29 112.166,7.467 108.569,-0.305"/><g fill="#DBDCDD"><path d="M11.305 2.981v25.814h-3.048v-25.814h-8.257v-2.726h19.563v2.727h-8.258zM24.893 28.796v-28.541h17.719v2.727h-14.673v10.061h12.508v2.728h-12.508v10.302h14.672v2.725h-17.718zM57.323 2.981v25.814h-3.047v-25.814h-8.257v-2.726h19.563v2.727h-8.259zM87.307 28.796l-6.494-12.667h-6.854v12.667h-3.045v-28.541h10.942c4.972 0 8.459 3.007 8.459 7.937 0 4.169-2.525 6.896-6.214 7.656l6.775 12.948h-3.569zm-5.733-25.815h-7.616v10.462h7.616c3.328 0 5.693-1.723 5.693-5.211.001-3.487-2.365-5.251-5.693-5.251z"/></g><g fill="#F48020"><path d="M125.438 11.379c-2.25 0-4.037-1.525-4.037-3.852v-7.207h2.141v7.131c0 1.263.74 2.018 1.896 2.018 1.153 0 1.908-.754 1.908-2.018v-7.131h2.126v7.207c.001 2.327-1.786 3.852-4.034 3.852zM131.862 11.286v-10.966h2.138v10.966h-2.138z"/></g><linearGradient id="b" gradientUnits="userSpaceOnUse" x1="109.334" y1="18.885" x2="122.028" y2="18.885"><stop offset="0" stop-color="#ACABAB"/><stop offset=".092" stop-color="#B8B8B8"/><stop offset=".236" stop-color="#C4C3C3"/><stop offset=".438" stop-color="#CACACA"/><stop offset="1" stop-color="#ccc"/></linearGradient><polygon fill="url(#b)" points="112.908,8.972 109.334,16.712 114.816,28.797 122.028,28.797"/></svg>