<?xml version="1.0" encoding="utf-8"?>
<!-- Generator: Adobe Illustrator 16.2.1, SVG Export Plug-In . SVG Version: 6.00 Build 0)  -->
<!DOCTYPE svg PUBLIC "-//W3C//DTD SVG 1.1//EN" "http://www.w3.org/Graphics/SVG/1.1/DTD/svg11.dtd">
<svg version="1.1" id="Layer_1" xmlns="http://www.w3.org/2000/svg" xmlns:xlink="http://www.w3.org/1999/xlink" x="0px" y="0px"
	 width="14px" height="14px" viewBox="0 0 14 14" enable-background="new 0 0 14 14" xml:space="preserve">
<path fill-rule="evenodd" clip-rule="evenodd" fill="#CBCBCB" d="M7,0C3.14,0,0,3.14,0,7c0,3.859,3.14,7,7,7c3.859,0,7-3.141,7-7
	C14,3.14,10.859,0,7,0z M8.827,12.493c-0.069-0.575-0.136-1.133-0.202-1.69c2.877-0.344,3.09-2.49,2.477-4.529
	c-0.172-0.573-0.446-1.086-0.452-1.725c-0.007-0.833-0.346-1.064-1.054-0.655C8.838,4.334,8.08,4.23,7.285,4.28
	c-0.124,0.008-0.247,0.014-0.37,0.019C6.797,4.294,6.678,4.288,6.559,4.28C5.794,4.23,5.065,4.334,4.335,3.894
	c-0.68-0.41-1.006-0.178-1.013,0.655C3.317,5.188,3.053,5.701,2.887,6.274c-0.589,2.039-0.385,4.185,2.382,4.529
	c-0.062,0.547-0.125,1.095-0.19,1.658C2.828,11.667,1.21,9.52,1.21,7c0-3.192,2.597-5.79,5.79-5.79c3.192,0,5.79,2.598,5.79,5.79
	C12.79,9.555,11.127,11.727,8.827,12.493z"/>
</svg>
