<?xml version="1.0" encoding="utf-8"?>
<!-- Generator: Adobe Illustrator 16.2.1, SVG Export Plug-In . SVG Version: 6.00 Build 0)  -->
<!DOCTYPE svg PUBLIC "-//W3C//DTD SVG 1.1//EN" "http://www.w3.org/Graphics/SVG/1.1/DTD/svg11.dtd">
<svg version="1.1" id="Layer_1" xmlns="http://www.w3.org/2000/svg" xmlns:xlink="http://www.w3.org/1999/xlink" x="0px" y="0px"
	 width="134px" height="29px" viewBox="0 0 134 29" enable-background="new 0 0 134 29" xml:space="preserve">
<linearGradient id="SVGID_1_" gradientUnits="userSpaceOnUse" x1="95.3037" y1="14.3477" x2="112.166" y2="14.3477">
	<stop  offset="0.5189" style="stop-color:#F48020"/>
	<stop  offset="1" style="stop-color:#D76927"/>
</linearGradient>
<polygon fill="url(#SVGID_1_)" points="95.304,29 102.272,29 112.166,7.467 108.569,-0.305 "/>
<g>
	<path fill="#DBDCDD" d="M11.305,2.981v25.814H8.257V2.981H0V0.255h19.563v2.727H11.305z"/>
	<path fill="#DBDCDD" d="M24.893,28.796V0.255h17.719v2.727H27.939v10.061h12.508v2.728H27.939v10.302h14.672v2.725H24.893z"/>
	<path fill="#DBDCDD" d="M57.323,2.981v25.814h-3.047V2.981h-8.257V0.255h19.563v2.727H57.323z"/>
	<path fill="#DBDCDD" d="M87.307,28.796l-6.494-12.667h-6.854v12.667h-3.045V0.255h10.942c4.972,0,8.459,3.007,8.459,7.937
		c0,4.169-2.525,6.896-6.214,7.656l6.775,12.948H87.307z M81.574,2.981h-7.616v10.462h7.616c3.328,0,5.693-1.723,5.693-5.211
		C87.268,4.745,84.902,2.981,81.574,2.981z"/>
</g>
<g>
	<g>
		<path fill="#F48020" d="M125.438,11.379c-2.25,0-4.037-1.525-4.037-3.852V0.32h2.141v7.131c0,1.263,0.74,2.018,1.896,2.018
			c1.153,0,1.908-0.754,1.908-2.018V0.32h2.126v7.207C129.473,9.854,127.686,11.379,125.438,11.379z"/>
		<path fill="#F48020" d="M131.862,11.286V0.32H134v10.966H131.862z"/>
	</g>
</g>
<linearGradient id="SVGID_2_" gradientUnits="userSpaceOnUse" x1="109.334" y1="18.8848" x2="122.0283" y2="18.8848">
	<stop  offset="0" style="stop-color:#ACABAB"/>
	<stop  offset="0.0919" style="stop-color:#B8B8B8"/>
	<stop  offset="0.2357" style="stop-color:#C4C3C3"/>
	<stop  offset="0.438" style="stop-color:#CACACA"/>
	<stop  offset="1" style="stop-color:#CCCCCC"/>
</linearGradient>
<polygon fill="url(#SVGID_2_)" points="112.908,8.972 109.334,16.712 114.816,28.797 122.028,28.797 "/>
</svg>
