<svg xmlns="http://www.w3.org/2000/svg" width="14" height="14"><path fill-rule="evenodd" clip-rule="evenodd" fill="#CBCBCB" d="M7 0c-3.86 0-7 3.14-7 7 0 3.859 3.14 7 7 7 3.859 0 7-3.141 7-7 0-3.86-3.141-7-7-7zm1.827 12.493l-.202-1.69c2.877-.344 3.09-2.49 2.477-4.529-.172-.573-.446-1.086-.452-1.725-.007-.833-.346-1.064-1.054-.655-.758.44-1.516.336-2.311.386l-.37.019-.356-.019c-.765-.05-1.494.054-2.224-.386-.68-.41-1.006-.178-1.013.655-.005.639-.269 1.152-.435 1.725-.589 2.039-.385 4.185 2.382 4.529l-.19 1.658c-2.251-.794-3.869-2.941-3.869-5.461 0-3.192 2.597-5.79 5.79-5.79 3.192 0 5.79 2.598 5.79 5.79 0 2.555-1.663 4.727-3.963 5.493z"/></svg>