<?xml version="1.0" encoding="utf-8"?>
<!-- Generator: Adobe Illustrator 15.1.0, SVG Export Plug-In  -->
<!DOCTYPE svg PUBLIC "-//W3C//DTD SVG 1.1//EN" "http://www.w3.org/Graphics/SVG/1.1/DTD/svg11.dtd" [
  <!ENTITY ns_flows "http://ns.adobe.com/Flows/1.0/">
]>
<svg version="1.1"
   xmlns="http://www.w3.org/2000/svg" xmlns:xlink="http://www.w3.org/1999/xlink" xmlns:a="http://ns.adobe.com/AdobeSVGViewerExtensions/3.0/"
   x="0px" y="0px" width="600px" height="300px" viewBox="-34.907 -114.693 600 300"
   overflow="visible" enable-background="new -34.907 -114.693 600 300" xml:space="preserve">
<defs>
</defs>
<path fill="#FFFFFF" d="M21.145,7.193H0V4.427h45.451v2.767H24.307v62.445h-3.162V7.193z"/>
<path fill="#FFFFFF" d="M74.104,4.427h34.978v2.767H77.266v26.283h26.678v2.767H77.266v30.63h32.803v2.766H74.104V4.427z"/>
<path fill="#FFFFFF" d="M154.532,7.193h-21.145V4.427h45.451v2.767h-21.145v62.445h-3.162V7.193z"/>
<path fill="#FFFFFF" d="M243.653,69.639l-18.378-30.827h-14.623v30.827h-3.162V4.427h17.982c3.227,0,6.126,0.313,8.695,0.939
  c2.568,0.626,4.758,1.615,6.57,2.964c1.811,1.351,3.211,3.08,4.2,5.187c0.987,2.109,1.482,4.678,1.482,7.708
  c0,5.204-1.565,9.272-4.693,12.202c-3.13,2.933-7.428,4.662-12.895,5.188l18.576,31.024H243.653z M224.288,36.045
  c6.06,0,10.703-1.201,13.931-3.606c3.226-2.404,4.842-6.142,4.842-11.214c0-5.138-1.616-8.76-4.842-10.869
  c-3.228-2.107-7.872-3.162-13.931-3.162h-13.636v28.852H224.288z"/>
<path fill="#FFFFFF" d="M306.888,46.32H280.31l-8.201,23.318h-3.162l23.318-65.212h2.767l23.318,65.212h-3.359L306.888,46.32z
   M305.9,43.555l-4.545-13.042c-1.383-3.953-2.685-7.708-3.901-11.265c-1.221-3.557-2.422-7.376-3.607-11.461h-0.396
  c-1.186,4.085-2.389,7.905-3.607,11.461c-1.219,3.557-2.519,7.312-3.901,11.265l-4.645,13.042H305.9z"/>
<path fill="#FFFFFF" d="M342.358,5.217h14.623v36.065c0,6.323,0.956,10.736,2.866,13.238c1.91,2.506,4.677,3.757,8.3,3.757
  c3.622,0,6.423-1.251,8.397-3.757c1.977-2.502,2.966-6.915,2.966-13.238V5.217h14.029v34.582c0,10.804-2.158,18.675-6.471,23.615
  c-4.314,4.939-10.622,7.41-18.922,7.41c-8.366,0-14.757-2.471-19.168-7.41c-4.414-4.94-6.621-12.812-6.621-23.615V5.217z"/>
<path fill="#FFFFFF" d="M424.269,5.217h14.525v64.421h-14.525V5.217z"/>
<linearGradient id="SVGID_1_" gradientUnits="userSpaceOnUse" x1="496.3296" y1="0" x2="496.3296" y2="69.6392">
  <stop  offset="0" style="stop-color:#FF8521"/>
  <stop  offset="0.3429" style="stop-color:#FF821F"/>
  <stop  offset="0.5852" style="stop-color:#FE791A"/>
  <stop  offset="0.7958" style="stop-color:#FC6910"/>
  <stop  offset="0.9883" style="stop-color:#FA5403"/>
  <stop  offset="1" style="stop-color:#FA5202"/>
</linearGradient>
<path fill="url(#SVGID_1_)" d="M463.324,51.442c-2.028-17.561,3.297-25.924,18.813-32.819c16.189-7.195,40.55-0.854,47.61-18.623
  c-4.006,29.768-15.283,52.161-35.797,59.678c-8.084,2.962-15.519,1.692-23.1-1.134c-3.593-1.338-5.239,4.823-4.998,11.095
  c-2.573-9.345,0.219-29.632,23.855-37.392c15.318-4.643,25.578,0.645,32.59-17.371c-6.174,12.476-22.058,8.964-36.392,12.541
  C473.736,30.449,465.572,35.792,463.324,51.442z"/>
</svg>
