<svg xmlns="http://www.w3.org/2000/svg" width="137" height="29"><linearGradient id="a" gradientUnits="userSpaceOnUse" x1="36.304" y1="-1.847" x2="53.166" y2="-1.847" gradientTransform="matrix(1 0 0 -1 59 12.5)"><stop offset=".519" stop-color="#F48020"/><stop offset="1" stop-color="#D76927"/></linearGradient><polygon fill="url(#a)" points="95.304,29 102.272,29 112.166,7.467 108.569,-0.305"/><path fill="#DBDCDD" d="M11.305 2.981v25.814h-3.048v-25.814h-8.257v-2.726h19.563v2.727l-8.258-.001zm13.588 25.815v-28.541h17.719v2.727h-14.673v10.061h12.508v2.728h-12.508v10.302h14.672v2.725h-17.718v-.002zm32.43-25.815v25.814h-3.047v-25.814h-8.257v-2.726h19.563v2.727l-8.259-.001zm29.984 25.815l-6.494-12.667h-6.854v12.667h-3.045v-28.541h10.942c4.972 0 8.459 3.007 8.459 7.937 0 4.169-2.525 6.896-6.214 7.656l6.775 12.948h-3.569zm-5.733-25.815h-7.616v10.462h7.616c3.328 0 5.693-1.723 5.693-5.211.001-3.487-2.365-5.251-5.693-5.251z"/><linearGradient id="b" gradientUnits="userSpaceOnUse" x1="50.334" y1="-6.385" x2="63.028" y2="-6.385" gradientTransform="matrix(1 0 0 -1 59 12.5)"><stop offset="0" stop-color="#ACABAB"/><stop offset=".092" stop-color="#B8B8B8"/><stop offset=".236" stop-color="#C4C3C3"/><stop offset=".438" stop-color="#CACACA"/><stop offset="1" stop-color="#ccc"/></linearGradient><polygon fill="url(#b)" points="112.908,8.972 109.334,16.712 114.816,28.797 122.028,28.797"/><path fill="#F48020" d="M123.296 11.379c-1.176 0-1.986-.305-2.796-1.115l1.406-1.39c.351.351.687.611 1.39.611 1.038 0 1.711-.611 1.711-1.864v-7.21h2.123v7.301c0 2.399-1.818 3.667-3.834 3.667zm9.225 0c-1.65 0-2.902-.351-3.971-1.436l1.374-1.375c.688.687 1.619.917 2.628.917 1.252 0 1.924-.474 1.924-1.344 0-.382-.107-.703-.336-.917-.214-.199-.458-.305-.962-.382l-1.314-.183c-.932-.137-1.619-.428-2.108-.901-.519-.519-.779-1.222-.779-2.138 0-1.94 1.435-3.299 3.788-3.299 1.497 0 2.581.367 3.513 1.268l-1.344 1.329c-.688-.657-1.512-.748-2.23-.748-1.13 0-1.681.626-1.681 1.375 0 .275.092.565.321.779.214.199.565.367 1.008.428l1.283.183c.993.137 1.619.412 2.077.84.581.55.84 1.344.84 2.306.002 2.107-1.754 3.298-4.031 3.298z"/></svg>