<?xml version="1.0" encoding="utf-8"?>
<!-- Generator: Adobe Illustrator 16.1.0, SVG Export Plug-In . SVG Version: 6.00 Build 0)  -->
<!DOCTYPE svg PUBLIC "-//W3C//DTD SVG 1.1//EN" "http://www.w3.org/Graphics/SVG/1.1/DTD/svg11.dtd">
<svg version="1.1" id="Layer_1" xmlns="http://www.w3.org/2000/svg" xmlns:xlink="http://www.w3.org/1999/xlink" x="0px" y="0px"
	 width="143px" height="39px" viewBox="0 0 143 39" enable-background="new 0 0 143 39" xml:space="preserve">
<g>
	<ellipse fill="#A82B20" cx="23.734" cy="4.463" rx="3.592" ry="2.854"/>
	<path fill="#A82B20" d="M25.157,11.572c-0.407,0.322-0.946,0.499-1.518,0.499c-0.574,0-1.114-0.177-1.518-0.499l-7.341-5.835
		l-3.41,2.71l7.34,5.834c1.316,1.046,3.068,1.625,4.928,1.625c1.861,0,3.611-0.578,4.926-1.625l14.56-11.57L39.716,0L25.157,11.572z
		"/>
	<path fill="#AAAEB3" d="M23.404,26.43c0.405-0.323,0.941-0.502,1.515-0.502c0.573,0,1.113,0.179,1.518,0.502l7.342,5.834
		l3.408-2.712l-7.341-5.833c-1.316-1.049-3.066-1.623-4.929-1.623c-1.86,0-3.61,0.577-4.924,1.623l-14.56,11.57L8.843,38
		L23.404,26.43z"/>
	<path fill="#AAAEB3" d="M14.556,18.397c0.407,0.322,0.628,0.749,0.628,1.203c0,0.459-0.222,0.888-0.628,1.21l-7.339,5.834
		l3.41,2.71l7.341-5.833c1.315-1.049,2.041-2.439,2.041-3.921c0-1.479-0.726-2.868-2.041-3.915L3.41,4.113L0,6.823L14.556,18.397z"
		/>
	<path fill="#AAAEB3" d="M33.248,19.79c-0.403-0.322-0.627-0.751-0.627-1.206c0-0.456,0.224-0.884,0.627-1.207l7.342-5.835
		l-3.412-2.71l-7.341,5.833c-1.317,1.047-2.041,2.439-2.041,3.921c0,1.478,0.726,2.87,2.041,3.912l14.559,11.575l3.41-2.71
		L33.248,19.79z"/>
	<path fill="#A82B20" d="M53.91,10.264c-0.465,0.007-0.861-0.098-1.186-0.316c-0.323-0.218-0.477-0.515-0.456-0.889
		c0.009-0.265,0.149-0.515,0.422-0.749c0.272-0.236,0.678-0.354,1.22-0.354h8.936c0.104-0.993,0.162-1.596,0.172-1.807l0.071-1.644
		h-8.061c-0.593,0-1.008-0.137-1.254-0.413c-0.24-0.275-0.357-0.55-0.346-0.823c0-0.278,0.119-0.536,0.363-0.775
		c0.242-0.238,0.653-0.357,1.237-0.357H74.47c0.466,0,0.867,0.106,1.206,0.317c0.336,0.21,0.517,0.504,0.535,0.883
		c0.018,0.377-0.156,0.667-0.529,0.867c-0.37,0.2-0.775,0.301-1.212,0.301h-7.721c-0.095,1.13-0.187,2.281-0.272,3.451h9.494
		c0.456,0,0.852,0.102,1.186,0.303c0.333,0.2,0.512,0.476,0.535,0.827c0.023,0.349-0.14,0.636-0.487,0.858
		c-0.345,0.22-0.758,0.328-1.233,0.32l-8.85-0.011c0.352,0.662,0.75,1.322,1.196,1.982c0.44,0.66,1.088,1.301,1.941,1.925
		c0.852,0.62,1.679,1.155,2.479,1.602c0.802,0.445,1.684,0.831,2.653,1.152c0.968,0.323,1.618,0.604,1.949,0.842
		c0.334,0.238,0.522,0.568,0.559,0.991c0.039,0.424-0.37,0.842-1.224,1.263c-0.854,0.419-2.286,0.04-4.302-1.135
		c-2.016-1.173-3.459-2.104-4.331-2.787c-0.872-0.682-1.418-1.186-1.636-1.505l-1.088-1.399c-0.248,0.441-0.551,0.923-0.908,1.444
		c-0.357,0.521-0.979,1.082-1.866,1.684c-0.884,0.602-1.796,1.135-2.729,1.604c-0.934,0.466-1.954,0.917-3.062,1.357
		c-1.104,0.441-1.992,0.665-2.664,0.675c-0.673,0.009-1.16-0.131-1.465-0.418c-0.306-0.292-0.451-0.591-0.438-0.904
		c0.015-0.314,0.167-0.572,0.452-0.771c0.286-0.201,1.142-0.519,2.572-0.95c1.431-0.434,2.767-1.072,4.01-1.921
		c1.244-0.845,2.042-1.585,2.394-2.219c0.353-0.633,0.615-1.259,0.788-1.879l0.171-0.634L53.91,10.264z"/>
	<path fill="#A82B20" d="M105.977,5.279c0.06-0.091,0.186-0.286,0.37-0.581c0.187-0.296,0.287-0.506,0.303-0.629
		c0.014-0.122-0.006-0.208-0.059-0.254c-0.052-0.047-0.207-0.071-0.465-0.071h-0.399c-0.257,0-0.437,0.035-0.536,0.106
		c-0.103,0.073-0.148,0.187-0.144,0.343c0.004,0.157,0.041,0.313,0.107,0.469l0.429,1.145
		C105.782,5.547,105.914,5.371,105.977,5.279z M104.283,16.191c-0.077-0.33,0.047-0.61,0.376-0.85
		c0.33-0.238,0.739-0.347,1.224-0.327c0.334,0.021,0.763,0.16,1.286,0.418c0.525,0.261,1.271,0.753,2.238,1.482
		c0.966,0.728,1.206,1.359,0.722,1.9c-0.487,0.536-1.197,0.635-2.13,0.295c-0.199-0.067-0.484-0.26-0.852-0.571
		c-0.366-0.316-0.923-0.716-1.664-1.207C104.741,16.843,104.34,16.463,104.283,16.191z M103.067,14.239v3.348
		c0,0.683-0.043,1.152-0.128,1.417c-0.088,0.26-0.291,0.508-0.617,0.739c-0.322,0.23-0.816,0.404-1.478,0.521
		c-0.663,0.115-1.286,0.167-1.866,0.152c-1.183-0.02-1.806-0.3-1.873-0.842c-0.068-0.543,0.124-0.928,0.572-1.16
		c0.172-0.089,0.382-0.144,0.628-0.171l1.115-0.042c0.487-0.062,0.729-0.304,0.729-0.726v-3.236h-5.661
		c-0.249,0-0.501-0.062-0.765-0.189c-0.262-0.125-0.411-0.373-0.45-0.745c-0.038-0.371,0.104-0.622,0.423-0.75
		c0.32-0.13,0.582-0.194,0.792-0.194h14.298c0.16,0,0.411,0.053,0.75,0.158c0.338,0.106,0.487,0.386,0.448,0.842
		c-0.066,0.586-0.466,0.878-1.198,0.878H103.067z M99.607,2.885c0.647,0,1.188,0.123,1.623,0.369
		c0.433,0.245,0.659,0.58,0.679,1.006c0.02,0.425-0.104,0.919-0.372,1.484c-0.314,0.646-0.594,1.18-0.836,1.604
		c-0.242,0.421-0.655,0.966-1.237,1.633h5.205c-0.506-0.509-0.921-1.032-1.243-1.567c-0.325-0.535-0.547-0.962-0.665-1.286
		c-0.12-0.324-0.238-0.731-0.358-1.226c-0.119-0.493-0.206-0.943-0.257-1.347c-0.054-0.404,0.004-0.745,0.165-1.016
		c0.19-0.334,0.442-0.548,0.763-0.649c0.319-0.099,0.822-0.148,1.509-0.148h2.946c0.484,0,1.147,0.128,1.985,0.383
		c0.838,0.256,1.013,0.898,0.517,1.925c-0.153,0.3-0.598,0.874-1.331,1.725c-0.733,0.851-1.109,1.287-1.131,1.306l-0.655,0.644
		c0.38,0.381,0.69,0.659,0.927,0.832c0.239,0.174,0.641,0.413,1.205,0.715c0.561,0.304,0.937,0.559,1.127,0.766
		c0.191,0.208,0.268,0.463,0.229,0.766c-0.037,0.305-0.324,0.585-0.857,0.848c-0.533,0.262-1.162,0.187-1.879-0.226
		c-0.72-0.412-1.492-0.971-2.311-1.68c-0.02,0.227-0.063,0.406-0.136,0.542c-0.071,0.137-0.203,0.251-0.399,0.347
		c-0.195,0.094-0.374,0.142-0.535,0.142H98.88c-0.354,0-0.586-0.036-0.694-0.113c-0.11-0.074-0.23-0.193-0.364-0.357
		c-0.694,0.484-1.327,0.831-1.896,1.042c-0.566,0.211-1.066,0.307-1.501,0.287c-0.435-0.021-0.758-0.136-0.972-0.348
		c-0.215-0.211-0.285-0.449-0.215-0.715c0.071-0.265,0.244-0.462,0.523-0.592l1.143-0.602c-0.305-0.192-0.559-0.341-0.759-0.45
		c-0.199-0.109-0.374-0.228-0.52-0.357c-0.149-0.13-0.19-0.324-0.122-0.583c0.036-0.157,0.167-0.312,0.386-0.465
		c0.219-0.152,0.5-0.218,0.844-0.198c0.419,0.035,1.061,0.353,1.932,0.959c0.301-0.225,0.574-0.462,0.812-0.715
		c-0.171-0.143-0.301-0.249-0.386-0.317l-0.772-0.479c-0.15-0.094-0.29-0.213-0.413-0.357c-0.126-0.143-0.136-0.351-0.038-0.628
		c0.103-0.274,0.337-0.422,0.708-0.442c0.374-0.021,0.673,0.015,0.901,0.106c0.229,0.092,0.576,0.287,1.046,0.587
		c0.093-0.225,0.164-0.4,0.213-0.526c0.047-0.125,0.064-0.234,0.051-0.322c-0.016-0.089-0.061-0.168-0.138-0.239
		c-0.076-0.073-0.285-0.111-0.629-0.119L96.52,4.825c-0.202,0.204-0.525,0.542-0.979,1.012c-0.454,0.469-0.987,0.753-1.602,0.852
		c-0.615,0.1-1.071,0.054-1.372-0.133c-0.3-0.187-0.399-0.472-0.294-0.852c0.048-0.178,0.138-0.324,0.266-0.439
		c0.13-0.115,0.354-0.295,0.681-0.536c0.321-0.24,0.671-0.545,1.043-0.914c0.371-0.368,0.687-0.744,0.942-1.133l0.544-0.868
		c0.504-0.736,1.084-0.974,1.737-0.716c0.651,0.259,1.021,0.508,1.107,0.745c0.075,0.253,0.043,0.461-0.101,0.624l-0.33,0.418
		H99.607z M96.905,14.811c0.533-0.034,0.976,0.078,1.323,0.333c0.349,0.254,0.467,0.578,0.364,0.973
		c-0.104,0.354-0.766,0.947-1.986,1.783c-1.22,0.832-2.263,1.361-3.132,1.583c-0.869,0.22-1.457,0.159-1.765-0.18
		c-0.311-0.341-0.433-0.636-0.365-0.89c0.047-0.197,0.151-0.356,0.314-0.48c0.161-0.123,0.444-0.279,0.852-0.473
		c0.403-0.195,0.899-0.473,1.485-0.833c0.586-0.36,1.036-0.687,1.352-0.975c0.314-0.289,0.582-0.497,0.8-0.625
		C96.366,14.904,96.62,14.832,96.905,14.811z M84.411,19.559V4.397c0-0.368,0.025-0.723,0.08-1.067
		c0.05-0.344,0.297-0.694,0.734-1.052c0.437-0.358,1.245-0.537,2.415-0.537h2.073c1.125,0,1.91,0.148,2.353,0.444
		c0.444,0.296,0.669,0.589,0.679,0.879s-0.01,0.532-0.058,0.73l-0.67,2.031c-0.325,1.111-0.535,1.774-0.63,1.992
		c-0.095,0.218-0.138,0.389-0.128,0.511c0.01,0.144,0.047,0.267,0.112,0.372c0.068,0.106,0.287,0.415,0.657,0.925
		c0.373,0.51,0.645,1.019,0.816,1.525c0.171,0.508,0.19,1.071,0.057,1.69c-0.134,0.606-0.46,1.187-0.979,1.74
		c-0.52,0.556-1.179,0.883-1.979,0.985c-0.801,0.103-1.379,0.072-1.731-0.091c-0.352-0.164-0.574-0.397-0.671-0.709
		c-0.094-0.31-0.047-0.584,0.144-0.821c0.075-0.096,0.166-0.171,0.271-0.225c0.104-0.055,0.289-0.108,0.559-0.164
		c0.266-0.054,0.447-0.105,0.551-0.153c0.097-0.048,0.225-0.14,0.376-0.28c0.153-0.139,0.312-0.412,0.479-0.817
		c0.166-0.405,0.017-0.986-0.448-1.742l-0.83-1.235c-0.237-0.449-0.303-0.863-0.187-1.245l0.972-3.512
		c0.049-0.205,0.02-0.36-0.085-0.465c-0.105-0.105-0.332-0.159-0.687-0.159h-0.444c-0.295,0-0.478,0.02-0.547,0.062
		c-0.074,0.041-0.136,0.102-0.188,0.18C87.426,4.266,87.4,4.441,87.4,4.713v14.845c0,0.279-0.167,0.514-0.493,0.7
		c-0.329,0.188-0.7,0.273-1.107,0.26c-0.401,0-0.734-0.087-0.997-0.26C84.541,20.084,84.411,19.852,84.411,19.559z"/>
	<path fill="#A82B20" d="M134.864,6.319c0.01-0.109,0.119-0.4,0.324-0.873c0.204-0.473,0.419-0.812,0.642-1.02
		c0.224-0.208,0.607-0.279,1.152-0.211c0.295,0.042,0.533,0.132,0.714,0.273c0.183,0.139,0.291,0.295,0.336,0.473
		c0.044,0.177,0.021,0.389-0.064,0.633c-0.095,0.267-0.297,0.621-0.6,1.067c-0.306,0.445-0.732,0.647-1.279,0.606
		c-0.549-0.041-0.9-0.156-1.052-0.346C134.886,6.731,134.828,6.532,134.864,6.319z M131.077,5.452
		c-0.057-0.237-0.018-0.443,0.114-0.613c0.132-0.169,0.374-0.287,0.722-0.347c0.349-0.061,0.683-0.027,1.008,0.104
		c0.429,0.182,0.724,0.482,0.887,0.898c0.161,0.415,0.238,0.714,0.227,0.897c-0.026,0.437-0.294,0.716-0.807,0.843
		c-0.51,0.126-0.929,0.063-1.265-0.189c-0.151-0.109-0.335-0.379-0.549-0.812C131.197,5.801,131.087,5.54,131.077,5.452z
		 M134.909,9.149c0.388,0.325,0.639,0.569,0.745,0.729c0.103,0.16,0.159,0.294,0.169,0.403c0,0.21-0.066,0.352-0.2,0.419
		l-0.299,0.184h2.345c0.122,0,0.295,0.063,0.52,0.188c0.224,0.128,0.352,0.321,0.381,0.583c0.027,0.262-0.092,0.467-0.357,0.612
		c-0.27,0.148-0.447,0.221-0.543,0.221h-3.978v1.969c0,0.219,0.065,0.382,0.188,0.491c0.122,0.109,0.432,0.163,0.927,0.163h2.304
		c0.22,0,0.495,0.068,0.828,0.198c0.336,0.135,0.497,0.387,0.487,0.761c-0.02,0.39-0.194,0.634-0.523,0.736
		c-0.328,0.102-0.592,0.153-0.792,0.153h-3.36c-1.125,0-1.825-0.109-2.101-0.326c-0.277-0.218-0.454-0.44-0.536-0.663
		c-0.083-0.226-0.122-0.456-0.122-0.686v-2.726h-0.287c-0.17,0-0.366-0.093-0.587-0.281c-0.218-0.187-0.277-0.438-0.185-0.75
		c0.114-0.429,0.468-0.643,1.059-0.643h2.588c-0.106-0.096-0.214-0.195-0.322-0.302c-0.108-0.104-0.219-0.229-0.33-0.372
		c-0.108-0.143-0.16-0.31-0.154-0.5c0.002-0.191,0.217-0.378,0.636-0.561h-2.132c-0.18,0-0.405-0.058-0.669-0.168
		c-0.27-0.114-0.399-0.343-0.388-0.691c0-0.319,0.13-0.544,0.394-0.673c0.262-0.13,0.483-0.196,0.663-0.196h6.276
		c0.163,0,0.386,0.064,0.673,0.19c0.285,0.125,0.415,0.372,0.386,0.739c-0.028,0.354-0.174,0.577-0.436,0.664
		c-0.263,0.089-0.47,0.134-0.623,0.134H134.909z M126.647,17.624c-0.183,0.182-0.462,0.338-0.838,0.469
		c-0.375,0.129-0.741,0.073-1.092-0.163c-0.105-0.063-0.228-0.202-0.361-0.419l-0.27-0.408l-0.514-1.02l-0.344-0.594
		c-0.144-0.259-0.188-0.496-0.138-0.714c0.053-0.217,0.291-0.394,0.718-0.526c0.421-0.133,0.84-0.11,1.249,0.066
		c0.363,0.169,0.692,0.5,0.995,0.99c0.299,0.491,0.498,0.856,0.594,1.094V3.972c0-0.219,0.048-0.481,0.149-0.792
		c0.099-0.31,0.289-0.571,0.572-0.786c0.28-0.214,0.651-0.372,1.112-0.475c0.464-0.102,0.9-0.152,1.31-0.152h8.978
		c1.888,0,2.896,0.338,3.029,1.015C141.934,3.46,142,3.869,142,4.012v13.773c0,0.539-0.061,0.948-0.179,1.227
		c-0.118,0.279-0.421,0.585-0.901,0.919c-0.481,0.332-1.327,0.503-2.537,0.511c-1.059,0.013-1.743-0.147-2.054-0.481
		c-0.309-0.334-0.448-0.653-0.419-0.959c0.027-0.462,0.192-0.75,0.492-0.863c0.301-0.113,0.59-0.173,0.865-0.179l0.871,0.031
		c0.382,0,0.63-0.049,0.744-0.148c0.115-0.1,0.171-0.224,0.171-0.374V4.634c0-0.244-0.05-0.438-0.149-0.581
		c-0.101-0.143-0.341-0.215-0.723-0.215h-7.52c-0.399,0-0.654,0.026-0.755,0.077c-0.106,0.051-0.177,0.119-0.217,0.199
		c-0.039,0.083-0.057,0.257-0.057,0.521v14.704c0,0.108-0.067,0.292-0.199,0.551c-0.134,0.26-0.517,0.401-1.152,0.425
		c-0.633,0.023-1.064-0.089-1.294-0.337c-0.229-0.249-0.341-0.463-0.341-0.639V17.624z M121.271,14.601
		c0.648-0.02,1.062,0.132,1.236,0.459c0.176,0.327,0.283,0.7,0.321,1.125l0.102,1.04c0.026,0.346,0.024,0.615-0.016,0.806
		c-0.057,0.238-0.192,0.471-0.407,0.701c-0.214,0.226-0.536,0.338-0.964,0.331c-0.755,0-1.168-0.309-1.244-0.931l-0.114-1.335
		c-0.012-0.054-0.044-0.262-0.108-0.623c-0.062-0.362-0.058-0.647,0.008-0.86C120.218,14.866,120.611,14.628,121.271,14.601z
		 M118.253,14.631c0.334,0.027,0.611,0.123,0.83,0.286c0.222,0.163,0.34,0.368,0.357,0.608c0.02,0.242-0.01,0.553-0.086,0.935
		l-0.186,0.877c-0.115,0.448-0.275,0.857-0.479,1.22c-0.205,0.364-0.433,0.616-0.687,0.75c-0.252,0.137-0.568,0.188-0.948,0.153
		c-0.669-0.041-1.028-0.228-1.08-0.561c-0.053-0.333-0.018-0.647,0.108-0.939l0.299-0.623c0.095-0.231,0.186-0.558,0.279-0.979
		c0.089-0.424,0.169-0.754,0.234-0.993c0.068-0.238,0.214-0.424,0.437-0.561C117.555,14.668,117.863,14.61,118.253,14.631z
		 M121.829,6.523c0.142-0.156,0.247-0.278,0.312-0.367l0.615-0.858c0.268-0.272,0.566-0.443,0.899-0.511
		c0.27-0.047,0.654,0,1.16,0.143c0.504,0.143,0.704,0.494,0.6,1.052c-0.057,0.258-0.342,0.7-0.857,1.322
		c-0.515,0.624-0.993,1.152-1.438,1.587c-0.442,0.436-1.444,1.383-3.008,2.839c1.171-0.122,2.178-0.224,3.016-0.307
		c-0.104-0.163-0.209-0.318-0.314-0.464c-0.106-0.146-0.174-0.308-0.207-0.485c-0.035-0.178,0.06-0.346,0.285-0.506
		c0.225-0.159,0.508-0.265,0.85-0.316c0.343-0.051,0.688-0.001,1.029,0.147c0.222,0.11,0.489,0.362,0.809,0.757
		c0.32,0.394,0.57,0.815,0.751,1.262c0.181,0.444,0.262,0.762,0.244,0.954c-0.029,0.189-0.122,0.375-0.275,0.555
		c-0.149,0.181-0.366,0.304-0.647,0.374c-0.283,0.067-0.561,0.067-0.836,0c-0.326-0.069-0.52-0.161-0.586-0.276l-0.159-0.205
		c-1.2,0.191-2.432,0.354-3.7,0.489c-1.269,0.137-2.126,0.205-2.573,0.205c-0.753,0.007-1.271-0.143-1.552-0.447
		c-0.281-0.307-0.397-0.62-0.352-0.94c0.039-0.259,0.167-0.476,0.388-0.654l0.499-0.316c0.104-0.067,0.388-0.289,0.852-0.663
		c0.461-0.375,0.842-0.689,1.137-0.945c0.296-0.255,0.771-0.755,1.429-1.497c-1.429,0.091-2.254,0.127-2.471,0.113
		c-1.032-0.048-1.59-0.308-1.684-0.781c-0.089-0.473-0.01-0.87,0.238-1.19c0.037-0.054,0.216-0.229,0.536-0.525
		c0.317-0.297,0.744-0.769,1.279-1.415c0.534-0.646,0.958-1.271,1.272-1.874s0.545-0.967,0.69-1.097
		c0.151-0.13,0.369-0.232,0.659-0.307c0.289-0.075,0.641-0.041,1.044,0.103c0.405,0.143,0.655,0.348,0.751,0.612
		c0.097,0.267,0.056,0.583-0.115,0.951c-0.153,0.32-0.39,0.701-0.714,1.143l-1.159,1.511l-0.685,0.898
		C120.538,6.583,121.199,6.558,121.829,6.523z"/>
	<polygon fill="#6F7678" points="56.167,32.552 54.306,25.839 56.086,25.839 57.16,30.489 58.066,25.839 59.853,25.839 
		60.793,30.489 61.87,25.839 63.572,25.839 61.731,32.552 59.967,32.552 58.938,27.747 57.928,32.552 	"/>
	<polygon fill="#6F7678" points="65.605,32.552 63.745,25.839 65.527,25.839 66.603,30.489 67.504,25.839 69.289,25.839 
		70.233,30.489 71.307,25.839 73.013,25.839 71.169,32.552 69.411,32.552 68.378,27.747 67.369,32.552 	"/>
	<polygon fill="#6F7678" points="75.046,32.552 73.184,25.839 74.968,25.839 76.041,30.489 76.948,25.839 78.729,25.839 
		79.671,30.489 80.752,25.839 82.45,25.839 80.608,32.552 78.847,32.552 77.819,27.747 76.809,32.552 	"/>
	<rect x="82.586" y="30.69" fill="#6F7678" width="1.825" height="1.861"/>
	<path fill="#6F7678" d="M88.946,32.597c-0.161,0.003-0.355,0.011-0.578,0.021c-0.226,0.009-0.365,0.014-0.427,0.014
		c-0.669,0-1.131-0.129-1.375-0.385c-0.252-0.258-0.375-0.765-0.375-1.52v-3.621h-0.868v-1.267h0.868v-1.843h1.744v1.843h1.011
		v1.267h-1.011v3.707c0,0.179,0.037,0.295,0.116,0.351c0.074,0.055,0.23,0.082,0.468,0.082h0.427V32.597z"/>
	<path fill="#6F7678" d="M89.974,32.552v-6.713h1.765v6.713H89.974z M89.974,25.086v-1.644h1.765v1.644H89.974z"/>
	<path fill="#6F7678" d="M97.016,29.245c-0.281,0.136-0.608,0.245-0.979,0.326c-0.37,0.082-0.56,0.126-0.569,0.13
		c-0.307,0.09-0.524,0.201-0.646,0.336c-0.118,0.136-0.18,0.323-0.18,0.561c0,0.246,0.077,0.442,0.23,0.587
		c0.157,0.146,0.364,0.22,0.628,0.22c0.47,0,0.844-0.137,1.111-0.41c0.27-0.271,0.405-0.644,0.405-1.116V29.245z M97.047,31.71
		c-0.221,0.352-0.51,0.619-0.867,0.805c-0.356,0.182-0.771,0.276-1.243,0.276c-0.636,0-1.123-0.187-1.47-0.557
		c-0.342-0.369-0.512-0.896-0.512-1.578c0-0.636,0.17-1.118,0.516-1.452c0.347-0.333,0.915-0.561,1.707-0.683
		c0.18-0.029,0.415-0.061,0.706-0.098c0.738-0.099,1.109-0.32,1.109-0.659c0-0.271-0.082-0.466-0.247-0.582
		c-0.162-0.118-0.435-0.177-0.818-0.177c-0.353,0-0.622,0.072-0.812,0.218c-0.187,0.144-0.281,0.348-0.281,0.616v0.099h-1.641
		v-0.125c0-0.688,0.236-1.229,0.71-1.622c0.475-0.395,1.127-0.592,1.961-0.592c0.917,0,1.617,0.163,2.103,0.489
		c0.49,0.327,0.73,0.796,0.73,1.411v3.799c0,0.281,0.031,0.495,0.09,0.633c0.058,0.139,0.153,0.244,0.289,0.313v0.307h-1.835
		c-0.062-0.115-0.106-0.244-0.14-0.386C97.066,32.024,97.051,31.871,97.047,31.71z"/>
	<path fill="#6F7678" d="M100.245,32.552v-6.713h1.729v0.803c0.244-0.328,0.531-0.572,0.866-0.735c0.33-0.164,0.7-0.246,1.107-0.246
		c0.724,0,1.265,0.192,1.622,0.578c0.36,0.388,0.541,0.97,0.541,1.747v4.566h-1.765v-4.05c0-0.479-0.078-0.823-0.237-1.029
		c-0.157-0.204-0.415-0.308-0.768-0.308c-0.411,0-0.735,0.127-0.976,0.378c-0.234,0.254-0.357,0.6-0.357,1.033v3.976H100.245z"/>
	<path fill="#6F7678" d="M107.633,25.086v-1.623h1.763v1.623H107.633z M106.86,35.305v-1.506h0.348c0.149,0,0.258-0.036,0.326-0.108
		c0.067-0.07,0.099-0.19,0.099-0.349v-7.503h1.763v7.795c0,0.602-0.167,1.03-0.496,1.288c-0.332,0.254-0.896,0.383-1.703,0.383
		H106.86z"/>
	<path fill="#6F7678" d="M110.98,32.552v-6.713h1.759v6.713H110.98z M110.98,25.086v-1.644h1.759v1.644H110.98z"/>
	<rect x="114.37" y="30.69" fill="#6F7678" width="1.823" height="1.861"/>
	<path fill="#6F7678" d="M121.779,30.018h1.724c-0.071,0.854-0.374,1.531-0.911,2.028c-0.533,0.496-1.22,0.745-2.06,0.745
		c-0.95,0-1.699-0.32-2.236-0.956c-0.543-0.637-0.814-1.52-0.814-2.645c0-1.12,0.277-1.996,0.828-2.635
		c0.555-0.636,1.312-0.956,2.28-0.956c0.842,0,1.522,0.231,2.037,0.689c0.512,0.463,0.793,1.104,0.855,1.924h-1.744
		c-0.047-0.356-0.169-0.631-0.362-0.823c-0.198-0.189-0.46-0.284-0.78-0.284c-0.431,0-0.752,0.177-0.972,0.527
		c-0.209,0.349-0.317,0.875-0.317,1.575c0,0.649,0.11,1.145,0.335,1.494c0.226,0.348,0.543,0.523,0.962,0.523
		c0.33,0,0.592-0.102,0.788-0.305C121.593,30.719,121.719,30.419,121.779,30.018z"/>
	<path fill="#6F7678" d="M126.062,29.188c0,0.67,0.13,1.187,0.397,1.551c0.27,0.363,0.646,0.547,1.141,0.547
		c0.486,0,0.861-0.184,1.131-0.547c0.264-0.364,0.399-0.881,0.399-1.551c0-0.666-0.132-1.179-0.397-1.538
		c-0.266-0.364-0.643-0.544-1.133-0.544c-0.495,0-0.871,0.18-1.141,0.544C126.191,28.009,126.062,28.521,126.062,29.188z
		 M124.281,29.19c0-1.112,0.293-1.994,0.88-2.632c0.59-0.639,1.402-0.959,2.433-0.959c1.029,0,1.839,0.32,2.43,0.959
		c0.592,0.638,0.887,1.52,0.887,2.632c0,1.121-0.295,2.003-0.887,2.642c-0.591,0.639-1.4,0.959-2.43,0.959
		c-1.03,0-1.843-0.32-2.433-0.959C124.574,31.193,124.281,30.312,124.281,29.19z"/>
	<path fill="#6F7678" d="M132.116,32.552v-6.713h1.66v0.742c0.241-0.312,0.517-0.547,0.818-0.705
		c0.303-0.156,0.635-0.235,1.001-0.235c0.415,0,0.769,0.08,1.068,0.239c0.291,0.16,0.548,0.411,0.765,0.756
		c0.227-0.333,0.5-0.58,0.816-0.747c0.312-0.166,0.661-0.248,1.05-0.248c0.659,0,1.183,0.198,1.566,0.596
		c0.386,0.397,0.58,0.937,0.58,1.623v4.692h-1.723v-4.322c0-0.325-0.085-0.577-0.258-0.757c-0.17-0.177-0.411-0.268-0.718-0.268
		c-0.343,0-0.618,0.115-0.818,0.342c-0.203,0.229-0.306,0.54-0.306,0.938v4.067h-1.703v-4.311c0-0.327-0.082-0.583-0.25-0.765
		c-0.171-0.181-0.405-0.271-0.71-0.271c-0.346,0-0.617,0.115-0.82,0.346c-0.196,0.231-0.299,0.545-0.299,0.945v4.056H132.116z"/>
</g>
</svg>
